<svg width="16" height="16" viewBox="0 0 16 16" fill="none" xmlns="http://www.w3.org/2000/svg">
<path d="M2.96711 9.27214L7.6022 13.6263C7.76187 13.7763 7.84167 13.8513 7.9358 13.8697C7.9782 13.8781 8.0218 13.8781 8.0642 13.8697C8.15833 13.8513 8.23813 13.7763 8.3978 13.6263L13.0329 9.27214C14.337 8.04707 14.4953 6.03107 13.3985 4.61738L13.1923 4.35156C11.8802 2.66039 9.2464 2.94401 8.32447 4.87577C8.1942 5.14864 7.8058 5.14864 7.67553 4.87577C6.7536 2.94401 4.11981 2.66039 2.80769 4.35157L2.60146 4.61738C1.50463 6.03107 1.663 8.04707 2.96711 9.27214Z" fill="#A4A4A4" stroke="#A4A4A4"/>
</svg>
